<mxfile host="app.diagrams.net" agent="Mozilla/5.0 (Windows NT 10.0; Win64; x64) AppleWebKit/537.36 (KHTML, like Gecko) Chrome/132.0.0.0 Safari/537.36" version="24.7.7">
  <diagram name="Page-1" id="FLUCBzAIa3q4JpgVUgnu">
    <mxGraphModel dx="1195" dy="622" grid="1" gridSize="10" guides="1" tooltips="1" connect="1" arrows="1" fold="1" page="1" pageScale="1" pageWidth="850" pageHeight="1100" math="0" shadow="0">
      <root>
        <mxCell id="0" />
        <mxCell id="1" parent="0" />
        <mxCell id="sdAVgAR6NZKTsHq1lM0e-20" style="edgeStyle=orthogonalEdgeStyle;rounded=0;orthogonalLoop=1;jettySize=auto;html=1;exitX=1;exitY=0.3333333333333333;exitDx=0;exitDy=0;exitPerimeter=0;entryX=0;entryY=0.5;entryDx=0;entryDy=0;" edge="1" parent="1" source="sdAVgAR6NZKTsHq1lM0e-1" target="sdAVgAR6NZKTsHq1lM0e-8">
          <mxGeometry relative="1" as="geometry" />
        </mxCell>
        <mxCell id="sdAVgAR6NZKTsHq1lM0e-21" style="edgeStyle=orthogonalEdgeStyle;rounded=0;orthogonalLoop=1;jettySize=auto;html=1;exitX=1;exitY=0.3333333333333333;exitDx=0;exitDy=0;exitPerimeter=0;" edge="1" parent="1" source="sdAVgAR6NZKTsHq1lM0e-1" target="sdAVgAR6NZKTsHq1lM0e-3">
          <mxGeometry relative="1" as="geometry" />
        </mxCell>
        <mxCell id="sdAVgAR6NZKTsHq1lM0e-22" style="edgeStyle=orthogonalEdgeStyle;rounded=0;orthogonalLoop=1;jettySize=auto;html=1;exitX=1;exitY=0.3333333333333333;exitDx=0;exitDy=0;exitPerimeter=0;" edge="1" parent="1" source="sdAVgAR6NZKTsHq1lM0e-1" target="sdAVgAR6NZKTsHq1lM0e-4">
          <mxGeometry relative="1" as="geometry" />
        </mxCell>
        <mxCell id="sdAVgAR6NZKTsHq1lM0e-23" style="edgeStyle=orthogonalEdgeStyle;rounded=0;orthogonalLoop=1;jettySize=auto;html=1;exitX=1;exitY=0.3333333333333333;exitDx=0;exitDy=0;exitPerimeter=0;entryX=0;entryY=0.5;entryDx=0;entryDy=0;" edge="1" parent="1" source="sdAVgAR6NZKTsHq1lM0e-1" target="sdAVgAR6NZKTsHq1lM0e-5">
          <mxGeometry relative="1" as="geometry" />
        </mxCell>
        <mxCell id="sdAVgAR6NZKTsHq1lM0e-24" style="edgeStyle=orthogonalEdgeStyle;rounded=0;orthogonalLoop=1;jettySize=auto;html=1;exitX=1;exitY=0.3333333333333333;exitDx=0;exitDy=0;exitPerimeter=0;entryX=0;entryY=0.5;entryDx=0;entryDy=0;" edge="1" parent="1" source="sdAVgAR6NZKTsHq1lM0e-1" target="sdAVgAR6NZKTsHq1lM0e-6">
          <mxGeometry relative="1" as="geometry" />
        </mxCell>
        <mxCell id="sdAVgAR6NZKTsHq1lM0e-1" value="User" style="shape=umlActor;verticalLabelPosition=bottom;verticalAlign=top;html=1;" vertex="1" parent="1">
          <mxGeometry x="190" y="280" width="30" height="60" as="geometry" />
        </mxCell>
        <mxCell id="sdAVgAR6NZKTsHq1lM0e-3" value="Search for Word" style="html=1;whiteSpace=wrap;" vertex="1" parent="1">
          <mxGeometry x="360" y="270" width="110" height="30" as="geometry" />
        </mxCell>
        <mxCell id="sdAVgAR6NZKTsHq1lM0e-4" value="Take Photo" style="html=1;whiteSpace=wrap;" vertex="1" parent="1">
          <mxGeometry x="360" y="310" width="110" height="30" as="geometry" />
        </mxCell>
        <mxCell id="sdAVgAR6NZKTsHq1lM0e-5" value="Upload Photo" style="html=1;whiteSpace=wrap;" vertex="1" parent="1">
          <mxGeometry x="360" y="350" width="110" height="30" as="geometry" />
        </mxCell>
        <mxCell id="sdAVgAR6NZKTsHq1lM0e-6" value="Analyze Text" style="html=1;whiteSpace=wrap;" vertex="1" parent="1">
          <mxGeometry x="360" y="390" width="110" height="30" as="geometry" />
        </mxCell>
        <mxCell id="sdAVgAR6NZKTsHq1lM0e-8" value="View Related Information" style="html=1;whiteSpace=wrap;" vertex="1" parent="1">
          <mxGeometry x="360" y="230" width="110" height="30" as="geometry" />
        </mxCell>
      </root>
    </mxGraphModel>
  </diagram>
</mxfile>
